:FULLY-SPECIFIED
:FORCE-ALL-JOINTS-BE-3DOF
:DEGREES
985
root 1.10772 15.1494 32.5011 5.42427 -4.93818 364.142
lfemur 8.82741 2.02331 5.16631
ltibia -0.00670971 0 0
lfoot -30.1346 -11.7734 0
ltoes -33.8329 0 0
rfemur -33.19 -15.7206 -6.18337
rtibia 50.9128 0 0
rfoot -22.8208 5.32403 0
rtoes -41.9611 0 0
lowerback -1.51617 -0.40087 0.707227
upperback -0.773341 -0.54207 -5.8814
thorax -0.0097124 -0.289435 -6.50895
lowerneck -6.66529 1.21445 5.82322
upperneck 1.00228 1.04518 3.3483
head 1.44859 0.622537 0.0997288
lclavicle -7.02675e-15 9.83839e-15 0
lhumerus -58.2187 -44.8183 114.74
lradius 54.9308 0 0
lwrist 24.9548 0 0
lhand 37.2496 24.4508 0
lfingers 7.12502 0 0
lthumb 60.0795 38.1533 0
rclavicle -7.02675e-15 9.83839e-15 0
rhumerus 3.94742 -24.8922 0.0527386
rradius 28.0481 0 0
rwrist -11.3388 0 0
rhand -31.4395 -44.8561 0
rfingers 7.12502 0 0
rthumb -4.70766 -794.787 0
986
root 1.11344 15.1526 32.4945 5.37825 -4.83602 364.129
lfemur 8.78786 1.91453 5.16136
ltibia -0.00314777 0 0
lfoot -30.1223 -11.7478 0
ltoes -33.8533 0 0
rfemur -33.05 -15.6709 -6.21202
rtibia 50.8096 0 0
rfoot -22.7706 5.18888 0
rtoes -42.0593 0 0
lowerback -1.5105 -0.387722 0.696134
upperback -0.755645 -0.523401 -5.8748
thorax 0.00776347 -0.27928 -6.49537
lowerneck -6.7051 1.19721 5.81693
upperneck 1.07487 1.01619 3.35
head 1.47873 0.610927 0.100774
lclavicle -8.97811e-15 6.42018e-15 0
lhumerus -58.2332 -44.9158 114.772
lradius 54.966 0 0
lwrist 24.9591 0 0
lhand 37.2549 24.4239 0
lfingers 7.12502 0 0
lthumb 60.0836 38.1188 0
rclavicle -8.97811e-15 6.42018e-15 0
rhumerus 3.88195 -24.8947 -0.0396967
rradius 28.0243 0 0
rwrist -11.2872 0 0
rhand -31.4744 -44.7426 0
rfingers 7.12502 0 0
rthumb -4.74133 -794.671 0
987
root 1.11883 15.1553 32.4868 5.32696 -4.73595 364.112
lfemur 8.75355 1.80566 5.16455
ltibia -0.00082836 0 0
lfoot -30.1157 -11.7091 0
ltoes -33.8836 0 0
rfemur -32.9133 -15.6261 -6.23281
rtibia 50.7133 0 0
rfoot -22.7296 5.05809 0
rtoes -42.1586 0 0
lowerback -1.50115 -0.373918 0.683621
upperback -0.735479 -0.503813 -5.86533
thorax 0.0258669 -0.26859 -6.47783
lowerneck -6.74662 1.18168 5.81714
upperneck 1.14689 0.988773 3.3532
head 1.50903 0.600174 0.101255
lclavicle -1.07218e-14 3.12664e-15 0
lhumerus -58.2485 -45.0224 114.815
lradius 55.0024 0 0
lwrist 24.9637 0 0
lhand 37.2497 24.3998 0
lfingers 7.12502 0 0
lthumb 60.0789 38.0977 0
rclavicle -1.07218e-14 3.12664e-15 0
rhumerus 3.81454 -24.8584 -0.11753
rradius 27.9966 0 0
rwrist -11.2203 0 0
rhand -31.4782 -44.6094 0
rfingers 7.12502 0 0
rthumb -4.74494 -794.537 0
988
root 1.1238 15.1573 32.4781 5.2697 -4.63928 364.088
lfemur 8.7258 1.6976 5.17712
ltibia 1.90833e-14 0 0
lfoot -30.1159 -11.6552 0
ltoes -33.9256 0 0
rfemur -32.7814 -15.5868 -6.24436
rtibia 50.6256 0 0
rfoot -22.6997 4.93313 0
rtoes -42.2585 0 0
lowerback -1.48754 -0.359459 0.669615
upperback -0.712469 -0.483304 -5.85243
thorax 0.0446671 -0.257355 -6.4557
lowerneck -6.78983 1.16834 5.82499
upperneck 1.21788 0.963487 3.35806
head 1.53935 0.590558 0.101043
lclavicle -1.22253e-14 0 0
lhumerus -58.2643 -45.1387 114.869
lradius 55.0398 0 0
lwrist 24.9687 0 0
lhand 37.2319 24.379 0
lfingers 7.12502 0 0
lthumb 60.0636 38.0924 0
rclavicle -1.22253e-14 0 0
rhumerus 3.74548 -24.7764 -0.17803
rradius 27.9644 0 0
rwrist -11.1351 0 0
rhand -31.4451 -44.4536 0
rfingers 7.12502 0 0
rthumb -4.71295 -794.381 0
